<mxfile host="app.diagrams.net" agent="Mozilla/5.0 (Windows NT 10.0; Win64; x64) AppleWebKit/537.36 (KHTML, like Gecko) Chrome/141.0.0.0 Safari/537.36" version="28.2.8">
  <diagram name="Seite-1" id="9rxZMv8Mnba7JgW3MB76">
    <mxGraphModel dx="1042" dy="527" grid="1" gridSize="10" guides="1" tooltips="1" connect="1" arrows="1" fold="1" page="1" pageScale="1" pageWidth="827" pageHeight="1169" math="0" shadow="0">
      <root>
        <mxCell id="0" />
        <mxCell id="1" parent="0" />
        <mxCell id="coI7dVelv7amHDnmwIpa-9" style="edgeStyle=orthogonalEdgeStyle;rounded=0;orthogonalLoop=1;jettySize=auto;html=1;entryX=0;entryY=0.5;entryDx=0;entryDy=0;" edge="1" parent="1" source="coI7dVelv7amHDnmwIpa-1" target="coI7dVelv7amHDnmwIpa-8">
          <mxGeometry relative="1" as="geometry" />
        </mxCell>
        <mxCell id="coI7dVelv7amHDnmwIpa-24" style="edgeStyle=orthogonalEdgeStyle;rounded=0;orthogonalLoop=1;jettySize=auto;html=1;entryX=0.5;entryY=0;entryDx=0;entryDy=0;" edge="1" parent="1" source="coI7dVelv7amHDnmwIpa-1" target="coI7dVelv7amHDnmwIpa-23">
          <mxGeometry relative="1" as="geometry" />
        </mxCell>
        <mxCell id="coI7dVelv7amHDnmwIpa-1" value="Open Application&amp;nbsp;" style="html=1;whiteSpace=wrap;" vertex="1" parent="1">
          <mxGeometry x="130" y="200" width="110" height="50" as="geometry" />
        </mxCell>
        <mxCell id="coI7dVelv7amHDnmwIpa-7" style="edgeStyle=orthogonalEdgeStyle;rounded=0;orthogonalLoop=1;jettySize=auto;html=1;entryX=0;entryY=0.5;entryDx=0;entryDy=0;" edge="1" parent="1" source="coI7dVelv7amHDnmwIpa-4" target="coI7dVelv7amHDnmwIpa-1">
          <mxGeometry relative="1" as="geometry" />
        </mxCell>
        <mxCell id="coI7dVelv7amHDnmwIpa-4" value="" style="ellipse;html=1;shape=startState;fillColor=#000000;strokeColor=#ff0000;" vertex="1" parent="1">
          <mxGeometry x="30" y="210" width="30" height="30" as="geometry" />
        </mxCell>
        <mxCell id="coI7dVelv7amHDnmwIpa-20" style="edgeStyle=orthogonalEdgeStyle;rounded=0;orthogonalLoop=1;jettySize=auto;html=1;entryX=0.5;entryY=0;entryDx=0;entryDy=0;" edge="1" parent="1" source="coI7dVelv7amHDnmwIpa-8" target="coI7dVelv7amHDnmwIpa-11">
          <mxGeometry relative="1" as="geometry" />
        </mxCell>
        <mxCell id="coI7dVelv7amHDnmwIpa-21" style="edgeStyle=orthogonalEdgeStyle;rounded=0;orthogonalLoop=1;jettySize=auto;html=1;entryX=0;entryY=0.5;entryDx=0;entryDy=0;" edge="1" parent="1" source="coI7dVelv7amHDnmwIpa-8" target="coI7dVelv7amHDnmwIpa-16">
          <mxGeometry relative="1" as="geometry" />
        </mxCell>
        <mxCell id="coI7dVelv7amHDnmwIpa-8" value="Choosing random positions on the botton of the destop" style="html=1;whiteSpace=wrap;" vertex="1" parent="1">
          <mxGeometry x="350" y="190" width="130" height="70" as="geometry" />
        </mxCell>
        <mxCell id="coI7dVelv7amHDnmwIpa-19" style="edgeStyle=orthogonalEdgeStyle;rounded=0;orthogonalLoop=1;jettySize=auto;html=1;entryX=0;entryY=0.5;entryDx=0;entryDy=0;" edge="1" parent="1" source="coI7dVelv7amHDnmwIpa-11" target="coI7dVelv7amHDnmwIpa-14">
          <mxGeometry relative="1" as="geometry" />
        </mxCell>
        <mxCell id="coI7dVelv7amHDnmwIpa-11" value="Visualising frogs there" style="html=1;whiteSpace=wrap;" vertex="1" parent="1">
          <mxGeometry x="354" y="330" width="120" height="60" as="geometry" />
        </mxCell>
        <mxCell id="coI7dVelv7amHDnmwIpa-15" style="edgeStyle=orthogonalEdgeStyle;rounded=0;orthogonalLoop=1;jettySize=auto;html=1;" edge="1" parent="1" source="coI7dVelv7amHDnmwIpa-14" target="coI7dVelv7amHDnmwIpa-16">
          <mxGeometry relative="1" as="geometry">
            <mxPoint x="595" y="270" as="targetPoint" />
            <Array as="points">
              <mxPoint x="630" y="300" />
              <mxPoint x="630" y="300" />
            </Array>
          </mxGeometry>
        </mxCell>
        <mxCell id="coI7dVelv7amHDnmwIpa-14" value="Animate random movement (jumping)" style="html=1;whiteSpace=wrap;" vertex="1" parent="1">
          <mxGeometry x="570" y="330" width="120" height="60" as="geometry" />
        </mxCell>
        <mxCell id="coI7dVelv7amHDnmwIpa-16" value="Interaction with application only on the current position of the frogs" style="html=1;whiteSpace=wrap;" vertex="1" parent="1">
          <mxGeometry x="560" y="190" width="160" height="70" as="geometry" />
        </mxCell>
        <mxCell id="coI7dVelv7amHDnmwIpa-23" value="Playing frog sounds" style="html=1;whiteSpace=wrap;" vertex="1" parent="1">
          <mxGeometry x="130" y="320" width="110" height="50" as="geometry" />
        </mxCell>
        <mxCell id="coI7dVelv7amHDnmwIpa-26" value="Interaction with other applications on the destop is possible" style="html=1;whiteSpace=wrap;" vertex="1" parent="1">
          <mxGeometry x="560" y="60" width="130" height="60" as="geometry" />
        </mxCell>
        <mxCell id="coI7dVelv7amHDnmwIpa-27" style="edgeStyle=orthogonalEdgeStyle;rounded=0;orthogonalLoop=1;jettySize=auto;html=1;entryX=0.625;entryY=1.007;entryDx=0;entryDy=0;entryPerimeter=0;" edge="1" parent="1" source="coI7dVelv7amHDnmwIpa-16" target="coI7dVelv7amHDnmwIpa-26">
          <mxGeometry relative="1" as="geometry" />
        </mxCell>
      </root>
    </mxGraphModel>
  </diagram>
</mxfile>
